<mxfile host="app.diagrams.net" agent="Mozilla/5.0 (Windows NT 10.0; Win64; x64) AppleWebKit/537.36 (KHTML, like Gecko) Chrome/136.0.0.0 Safari/537.36 Edg/136.0.0.0" version="26.3.0">
  <diagram name="Page-1" id="MmqrurFRCSXzho0Oxhcs">
    <mxGraphModel dx="1258" dy="742" grid="1" gridSize="10" guides="1" tooltips="1" connect="1" arrows="1" fold="1" page="1" pageScale="1" pageWidth="850" pageHeight="1100" math="0" shadow="0">
      <root>
        <mxCell id="0" />
        <mxCell id="1" parent="0" />
        <mxCell id="OnM1JmMcAyJP5WtvJ-oa-1" value="Start" style="ellipse;whiteSpace=wrap;html=1;" vertex="1" parent="1">
          <mxGeometry x="360" y="20" width="120" height="80" as="geometry" />
        </mxCell>
        <mxCell id="OnM1JmMcAyJP5WtvJ-oa-2" value="" style="shape=flexArrow;endArrow=classic;html=1;rounded=0;exitX=0.5;exitY=1;exitDx=0;exitDy=0;" edge="1" parent="1" source="OnM1JmMcAyJP5WtvJ-oa-1">
          <mxGeometry width="50" height="50" relative="1" as="geometry">
            <mxPoint x="460" y="90" as="sourcePoint" />
            <mxPoint x="420" y="210" as="targetPoint" />
            <Array as="points">
              <mxPoint x="420" y="170" />
            </Array>
          </mxGeometry>
        </mxCell>
        <mxCell id="OnM1JmMcAyJP5WtvJ-oa-3" value="Take two numbers a,b" style="shape=parallelogram;perimeter=parallelogramPerimeter;whiteSpace=wrap;html=1;fixedSize=1;" vertex="1" parent="1">
          <mxGeometry x="340" y="220" width="150" height="60" as="geometry" />
        </mxCell>
        <mxCell id="OnM1JmMcAyJP5WtvJ-oa-4" value="C=a+b" style="rounded=0;whiteSpace=wrap;html=1;" vertex="1" parent="1">
          <mxGeometry x="350" y="410" width="120" height="60" as="geometry" />
        </mxCell>
        <mxCell id="OnM1JmMcAyJP5WtvJ-oa-5" value="" style="shape=flexArrow;endArrow=classic;html=1;rounded=0;exitX=0.5;exitY=1;exitDx=0;exitDy=0;" edge="1" parent="1" source="OnM1JmMcAyJP5WtvJ-oa-3">
          <mxGeometry width="50" height="50" relative="1" as="geometry">
            <mxPoint x="400" y="360" as="sourcePoint" />
            <mxPoint x="415" y="400" as="targetPoint" />
          </mxGeometry>
        </mxCell>
        <mxCell id="OnM1JmMcAyJP5WtvJ-oa-6" value="" style="shape=flexArrow;endArrow=classic;html=1;rounded=0;exitX=0.5;exitY=1;exitDx=0;exitDy=0;" edge="1" parent="1" source="OnM1JmMcAyJP5WtvJ-oa-4">
          <mxGeometry width="50" height="50" relative="1" as="geometry">
            <mxPoint x="430" y="580" as="sourcePoint" />
            <mxPoint x="410" y="560" as="targetPoint" />
          </mxGeometry>
        </mxCell>
        <mxCell id="OnM1JmMcAyJP5WtvJ-oa-7" value="end" style="ellipse;whiteSpace=wrap;html=1;" vertex="1" parent="1">
          <mxGeometry x="350" y="560" width="120" height="80" as="geometry" />
        </mxCell>
      </root>
    </mxGraphModel>
  </diagram>
</mxfile>
